<?xml version="1.0" encoding="UTF-8" standalone="no"?>
<svg width="244px" height="35px" viewBox="0 0 244 35" version="1.1" xmlns="http://www.w3.org/2000/svg" xmlns:xlink="http://www.w3.org/1999/xlink">
    <!-- Generator: Sketch 43.2 (39069) - http://www.bohemiancoding.com/sketch -->
    <title>logo</title>
    <desc>Created with Sketch.</desc>
    <defs></defs>
    <g id="Page-1" stroke="none" stroke-width="1" fill="none" fill-rule="evenodd">
        <g id="MENUS" transform="translate(-385.000000, -575.000000)" fill-rule="nonzero">
            <g id="header-matières">
                <g id="logo" transform="translate(385.000000, 575.000000)">
                    <g id="typo" transform="translate(46.000000, 0.000000)" fill="#004987">
                        <path d="M187.188896,7.48569444 C177.891716,7.48569444 177.133537,10.0032639 177.133537,13.5125 L177.133537,13.7453472 C177.133537,13.971875 177.318459,14.1565972 177.548638,14.1565972 L182.384826,14.1565972 C182.613058,14.1565972 182.79798,13.971875 182.79798,13.7453472 L182.79798,13.4852778 C182.79798,11.9180556 182.79798,11.68375 187.188896,11.68375 C191.581272,11.68375 191.581272,12.6613194 191.581272,14.6096528 L191.581272,14.8473611 L187.059451,14.8473611 C177.714094,14.8473611 176.971974,17.6264583 176.971974,21.2601389 L176.971974,21.6154861 C176.971974,25.6142361 178.491252,28.0934028 186.052114,28.0934028 C188.60598,28.0934028 190.417725,27.3822222 191.612903,26.6457639 L191.612903,27.3554861 C191.612903,27.5834722 191.797825,27.7681944 192.026057,27.7681944 L196.828667,27.7681944 C197.0569,27.7681944 197.241821,27.5834722 197.241821,27.3554861 L197.241821,13.8970139 C197.242794,10.3906944 196.486562,7.48569444 187.188896,7.48569444 M187.091569,23.798125 C182.634957,23.798125 182.634957,22.5881944 182.634957,21.5182639 C182.634957,20.1357639 182.634957,19.0454167 187.059451,19.0454167 L191.581272,19.0454167 L191.581272,20.9349306 C191.581759,22.9610417 191.581759,23.798125 187.091569,23.798125" id="Shape"></path>
                        <path d="M165.024575,7.48618056 C162.922308,7.48618056 161.029294,7.98347222 159.495418,8.93236111 L159.495418,8.25472222 C159.495418,8.02819444 159.310496,7.84347222 159.081777,7.84347222 L154.277707,7.84347222 C154.050935,7.84347222 153.866013,8.02819444 153.866013,8.25472222 L153.866013,33.3521528 C153.866013,33.5801389 154.050935,33.7653472 154.277707,33.7653472 L159.117301,33.7653472 C159.344074,33.7653472 159.528995,33.580625 159.528995,33.3521528 L159.528995,26.7322917 C160.754831,27.4196528 162.575823,28.0924306 165.024575,28.0924306 C172.604417,28.0924306 174.040966,25.8154861 174.040966,21.6159722 L174.040966,13.9626389 C174.040966,9.96388889 172.531421,7.48618056 165.024575,7.48618056 L165.024575,7.48618056 Z M159.529482,14.8060417 C159.529482,12.7269444 159.529482,11.78 163.953976,11.78 C168.37847,11.78 168.37847,12.7269444 168.37847,14.8060417 L168.37847,20.7720833 C168.37847,22.8511806 168.37847,23.798125 163.953976,23.798125 C159.529482,23.798125 159.529482,22.8511806 159.529482,20.7720833 L159.529482,14.8060417 Z" id="Shape"></path>
                        <path d="M142.634942,7.48569444 C140.746794,7.48569444 139.032376,7.96888889 137.529158,8.92555556 L137.529158,8.25569444 C137.529158,8.02770833 137.344236,7.84298611 137.115517,7.84298611 L132.3095,7.84298611 C132.082728,7.84298611 131.897806,8.02770833 131.897806,8.25569444 L131.897806,27.3229167 C131.897806,27.5494444 132.082728,27.735625 132.3095,27.735625 L137.147148,27.735625 C137.375381,27.735625 137.560789,27.5489583 137.560789,27.3229167 L137.560789,14.8055556 C137.560789,12.7915972 137.560789,11.7809722 141.594028,11.7809722 C145.598555,11.7809722 145.598555,12.7915972 145.598555,14.8055556 L145.598555,19.3127778 C145.598555,19.5407639 145.783476,19.7240278 146.010249,19.7240278 L150.846437,19.7240278 C151.074669,19.7240278 151.261537,19.5407639 151.261537,19.3127778 L151.261537,13.9621528 C151.262024,10.0752083 149.793357,7.48569444 142.634942,7.48569444" id="Shape"></path>
                        <path d="M118.783454,7.48520833 C109.439558,7.48520833 108.695978,10.2657639 108.695978,13.8979861 L108.695978,21.7122222 C108.695978,25.3284028 109.439558,28.0929167 118.783454,28.0929167 C127.153593,28.0929167 128.869471,25.8145139 128.869471,22.3947222 L128.869471,21.7554861 C128.869471,21.5275 128.684549,21.3427778 128.457777,21.3427778 L123.621589,21.3427778 C123.391897,21.3427778 123.207948,21.5275 123.207948,21.7554861 L123.207948,21.9052083 C123.207948,23.7597222 122.379694,23.9284028 118.783454,23.9284028 C114.35896,23.9284028 114.35896,23.0611806 114.35896,20.9675 L114.35896,19.8547917 L128.45729,19.8547917 C128.684063,19.8547917 128.868984,19.6700694 128.868984,19.4435417 L128.868984,13.8975 C128.869471,10.2657639 128.126865,7.48520833 118.783454,7.48520833 L118.783454,7.48520833 Z M114.35896,15.5940278 L114.35896,14.6101389 C114.35896,12.5388194 114.35896,11.6842361 118.783454,11.6842361 C123.207948,11.6842361 123.207948,12.5388194 123.207948,14.6101389 L123.207948,15.5940278 L114.35896,15.5940278 Z" id="Shape"></path>
                        <path d="M96.7169475,7.48569444 C94.6978949,7.48569444 92.8924756,7.96256944 91.2213677,8.93479167 L91.2213677,0.881875 C91.2213677,0.655347222 91.0344995,0.470625 90.8077272,0.470625 L85.9715392,0.470625 C85.7433069,0.470625 85.5583853,0.655347222 85.5583853,0.881875 L85.5583853,27.3234028 C85.5583853,27.5499306 85.7433069,27.7361111 85.9715392,27.7361111 L90.8077272,27.7361111 C91.0344995,27.7361111 91.2213677,27.5494444 91.2213677,27.3234028 L91.2213677,14.8055556 C91.2213677,12.7279167 91.2213677,11.7809722 95.6444018,11.7809722 C100.068896,11.7809722 100.068896,12.7279167 100.068896,14.8055556 L100.068896,27.3234028 C100.068896,27.5499306 100.253818,27.7361111 100.482536,27.7361111 L105.318724,27.7361111 C105.546957,27.7361111 105.731878,27.5494444 105.731878,27.3234028 L105.731878,13.9621528 C105.731878,9.96340278 104.223307,7.48569444 96.7169475,7.48569444" id="Shape"></path>
                        <path d="M72.4430599,0.374861111 C62.3555834,0.374861111 62.3555834,4.59381944 62.3555834,7.98347222 L62.3555834,15.9970139 C62.3555834,16.225 62.5424516,16.4102083 62.769224,16.4102083 L76.8675539,16.4102083 L76.8675539,19.6929167 C76.8675539,22.2629861 76.8675539,23.3265972 72.4430599,23.3265972 C68.0185659,23.3265972 68.0185659,22.2629861 68.0185659,19.6929167 L68.0185659,19.7502778 C68.0185659,19.52375 67.8336442,19.3370833 67.605412,19.3370833 L62.769224,19.3370833 C62.5424516,19.3370833 62.3555834,19.52375 62.3555834,19.7502778 L62.3555834,20.5873611 C62.3555834,24.8763194 63.0991631,28.1575694 72.4430599,28.1575694 C81.7869567,28.1575694 82.5305364,24.8763194 82.5305364,20.5873611 L82.5305364,11.8354167 C82.5305364,11.6088889 82.3456147,11.4222222 82.1173825,11.4222222 L68.0190525,11.4222222 L68.0190525,8.83951389 C68.0190525,6.29666667 68.0190525,5.24569444 72.4435465,5.24569444 C76.8680406,5.24569444 76.8680406,5.26659722 76.8680406,7.80944444 L76.8680406,8.16041667 C76.8680406,8.38694444 77.0529622,8.57166667 77.2816811,8.57166667 L82.1178691,8.57166667 C82.3461014,8.57166667 82.531023,8.38694444 82.531023,8.16041667 L82.531023,7.98347222 C82.5305364,4.59381944 82.5305364,0.374861111 72.4430599,0.374861111" id="Shape"></path>
                        <path d="M50.8568627,7.84347222 L46.0206747,7.84347222 C45.7924424,7.84347222 45.6075207,8.02819444 45.6075207,8.25472222 L45.6075207,18.0809722 C45.6075207,20.2208333 45.6075207,21.1055556 41.1830267,21.1055556 C36.7585327,21.1055556 36.7585327,20.1586111 36.7585327,18.0809722 L36.7585327,8.25472222 C36.7585327,8.02819444 36.5736111,7.84347222 36.3468387,7.84347222 L31.5091908,7.84347222 C31.2809585,7.84347222 31.0955502,8.02819444 31.0955502,8.25472222 L31.0955502,18.9564583 C31.0955502,23.05875 32.57687,25.4329167 40.144059,25.4329167 C42.2219945,25.4329167 44.0945696,24.9959028 45.6075207,24.1670833 C45.6026544,27.0720833 45.746212,28.6650694 44.9768406,29.1477778 C44.4405677,29.485625 43.6327521,29.6115278 41.8370654,29.6149306 C41.8195465,29.6115278 41.8020276,29.6100694 41.7825622,29.6100694 C38.9780793,29.5828472 37.3707207,29.1079167 37.3707207,28.3058333 L37.3707207,28.0793056 C37.3707207,27.8527778 37.187259,27.6680556 36.9590267,27.6680556 L32.498035,27.6680556 C32.2698028,27.6680556 32.086341,27.8527778 32.086341,28.0793056 L32.086341,28.2421528 C32.086341,32.3143056 34.2859355,33.7541667 40.7917714,33.9165278 C40.8316756,33.9291667 40.8749862,33.9374306 40.91927,33.9374306 L41.1825401,33.9408333 L41.6565235,33.9345139 L41.7728295,33.9379167 C41.7966747,33.9315972 41.8351189,33.9330556 41.8667502,33.9267361 C50.560988,33.7799306 51.26807,30.9133333 51.26807,27.4648611 L51.26807,8.25472222 C51.2685567,8.02819444 51.0850949,7.84347222 50.8568627,7.84347222" id="Shape"></path>
                        <path d="M27.4272885,0.374861111 L19.5982894,0.374861111 C19.4021751,0.374861111 19.2279594,0.504166667 19.1705364,0.692291667 L14.0851908,20.5965972 L8.96626728,0.692291667 C8.90884424,0.502708333 8.73462857,0.374861111 8.53851429,0.374861111 L0.744552995,0.374861111 C0.498801843,0.374861111 0.299281106,0.574166667 0.299281106,0.821111111 L0.299281106,27.2898611 C0.299281106,27.5353472 0.498801843,27.7361111 0.744552995,27.7361111 L5.62405161,27.7361111 C5.87126267,27.7361111 6.07078341,27.5353472 6.07078341,27.2898611 L6.07078341,8.231875 L11.0617217,27.4220833 C11.1206046,27.60875 11.2933604,27.7361111 11.4880147,27.7361111 L16.6833401,27.7361111 C16.8794544,27.7361111 17.05367,27.6068056 17.1110931,27.420625 L22.1005714,8.13319444 L22.1005714,27.2898611 C22.1005714,27.5353472 22.3000922,27.7361111 22.5473032,27.7361111 L27.4268018,27.7361111 C27.672553,27.7361111 27.8720737,27.5353472 27.8720737,27.2898611 L27.8720737,0.821111111 C27.8725604,0.574166667 27.6730396,0.374861111 27.4272885,0.374861111" id="Shape"></path>
                    </g>
                    <g id="picto">
                        <path d="M5.33569231,20.6144105 C5.32061538,20.5537456 5.32861538,20.4903092 5.35876923,20.4354952 L6.85446154,18.4658874 C6.94923077,18.3417861 6.804,18.2315422 6.804,18.2315422 L5.55569231,17.4607592 C5.43876923,17.3890083 5.40123077,17.2356523 5.472,17.117402 L5.92215385,16.367867 C5.98984615,16.2557755 6.13292308,16.2132793 6.25015385,16.2730204 L8.03138462,17.1669809 C8.03353846,17.1679047 8.15661538,17.2405794 8.33723077,17.1900767 L9.86,16.761727 C9.86,16.761727 10.4070769,16.6234603 11.0418462,16.761727 L14.9898462,17.620274 L14.992,17.6211978 L15.0203077,17.6261249 C15.0981538,17.642138 15.3150769,17.669545 15.5369231,17.5937908 C15.5652308,17.5836287 15.5935385,17.5716189 15.6227692,17.5574535 C15.64,17.549447 15.6572308,17.5392848 15.6753846,17.5300465 C15.6956923,17.5180367 15.7178462,17.5038713 15.7378462,17.4897059 C15.7652308,17.4706134 15.7904615,17.4484414 15.8156923,17.4241139 C15.8289231,17.4121041 15.8418462,17.4010181 15.8541538,17.3877765 C15.8926154,17.3465121 15.9276923,17.3000126 15.96,17.2433509 C15.9609231,17.2411953 15.9621538,17.2402715 15.9630769,17.2384238 L18.6889231,12.4224925 C18.6889231,12.4224925 18.7778462,12.2133987 18.9615385,11.9405606 C19.2775385,11.4740259 19.8809231,10.8184138 20.8387692,10.6850742 L24.8713846,10.3568062 C27.4941538,7.50647939 29.3855385,4.45414153 30.3713846,1.40796254 C28.7646154,0.578670186 26.6806154,0.1826546 24.0396923,0.1826546 L11.1132308,0.1826546 C3.628,0.1826546 0.522769231,3.29042232 0.522769231,10.7808446 L0.522769231,23.5728255 C2.23323077,23.2072964 3.964,22.7416855 5.7,22.1729135 L5.33569231,20.6144105 Z M19.7753846,5.82048768 C20.1224615,5.41430995 20.608,5.16487557 21.1418462,5.12268728 C21.6747692,5.08542609 22.1935385,5.24802036 22.6012308,5.59538084 C23.008,5.94274133 23.2563077,6.42775264 23.2996923,6.96203494 C23.3864615,8.06508924 22.5630769,9.03264832 21.4618462,9.12041227 C21.4064615,9.12533937 21.352,9.12657114 21.2984615,9.12657114 C20.8230769,9.12657114 20.368,8.9599736 20.0027692,8.6477187 C19.5950769,8.30128205 19.3467692,7.81657868 19.3043077,7.28106461 C19.2615385,6.7467823 19.4289231,6.22974485 19.7753846,5.82048768 L19.7753846,5.82048768 Z M8.00707692,12.2100113 C8.35815385,11.7970588 8.85076923,11.544545 9.39169231,11.5011249 C9.93661538,11.4638638 10.4584615,11.6283057 10.8723077,11.9809012 C11.2849231,12.3334967 11.5372308,12.8252828 11.5806154,13.3666478 C11.6230769,13.9089367 11.4523077,14.4352124 11.1012308,14.8484729 C10.7489231,15.2614253 10.2566154,15.5130153 9.71569231,15.5564354 C9.66123077,15.5604387 9.60553846,15.5635181 9.55015385,15.5635181 C9.06861538,15.5635181 8.60646154,15.3938411 8.23630769,15.077583 C7.82246154,14.7249874 7.57138462,14.2322775 7.528,13.6909125 C7.48430769,13.1492396 7.65476923,12.6232717 8.00707692,12.2100113 L8.00707692,12.2100113 Z" id="Shape" fill="#006299"></path>
                        <path d="M21.2978462,9.12687908 C21.3523077,9.12687908 21.4067692,9.12472348 21.4612308,9.12072021 C22.5621538,9.03295626 23.3867692,8.06416541 23.2990769,6.96141905 C23.2566154,6.42806058 23.0083077,5.94243338 22.6006154,5.59476496 C22.1929231,5.24832831 21.6750769,5.08573404 21.1412308,5.12207139 C20.6073846,5.16549145 20.1230769,5.41400201 19.7756923,5.82110357 C19.4286154,6.22912896 19.2609231,6.74739819 19.3033846,7.28168049 C19.3458462,7.8159628 19.5941538,8.30189794 20.0018462,8.64833459 C20.3670769,8.95935772 20.8224615,9.12687908 21.2978462,9.12687908" id="Shape" fill="#FFFFFF"></path>
                        <path d="M9.55046154,15.5629022 C9.60492308,15.5629022 9.66061538,15.5607466 9.716,15.5558195 C10.2569231,15.5123994 10.7495385,15.2620412 11.1015385,14.8487808 C11.4526154,14.4345965 11.6233846,13.9083208 11.58,13.3669558 C11.5375385,12.8246669 11.2852308,12.3325729 10.8726154,11.9802853 C10.4587692,11.6276898 9.93723077,11.4632479 9.392,11.500509 C8.85107692,11.5448529 8.35846154,11.7964429 8.00738462,12.2093954 C7.65507692,12.6235797 7.48461538,13.1486237 7.528,13.6912205 C7.57138462,14.2325855 7.82276923,14.7243715 8.23630769,15.0769671 C8.60676923,15.3932252 9.06892308,15.5629022 9.55046154,15.5629022" id="Shape" fill="#FFFFFF"></path>
                        <path d="M26.6618462,22.2637569 L21.3513846,25.396776 L20.664,25.8029537 L15.28,28.9793929 L14.8289231,29.2460721 L10.0350769,32.074227 L9.54246154,32.3652338 L6.968,33.88432 C6.91846154,33.8723102 6.87415385,33.856913 6.82584615,33.8449032 L6.82092308,33.8479827 C7.61723077,34.0752451 10.0181538,34.332686 11.1129231,34.332686 L24.0387692,34.332686 C31.524,34.332686 34.6292308,31.2249183 34.6292308,23.7335721 L34.6292308,17.5629965 L27.3076923,21.8828306 L26.6618462,22.2637569 Z" id="Shape" fill="#FFFFFF"></path>
                        <path d="M14.7904615,29.1124246 L14.1070769,26.0117396 C13.9950769,25.4965498 13.6135385,25.3561275 13.5135385,25.3281046 L12.4618462,25.052495 C12.4609231,25.052495 11.9270769,24.9129965 11.7544615,25.566453 L10.0781538,31.9125566 L10.0356923,32.074227 L14.8283077,29.2473039 C14.8212308,29.2312908 14.8123077,29.2158937 14.8092308,29.1998806 L14.7904615,29.1124246 Z" id="Shape" fill="#004987"></path>
                        <path d="M9.52092308,32.2432881 L9.188,25.3952363 C9.14369231,25.1205505 8.83784615,25.0568062 8.83692308,25.0568062 L6.50984615,24.8920563 C6.40492308,24.8818942 6.31815385,24.8052162 6.29292308,24.7032868 L5.70061538,22.1741453 C3.96492308,22.7416855 2.23415385,23.2085282 0.523384615,23.5740573 L0.523384615,23.7194067 C0.523384615,29.5684892 2.43169231,32.7338424 6.82676923,33.8449032 C6.87507692,33.856913 6.91969231,33.8723102 6.96892308,33.8833962 L9.54338462,32.3652338 C9.53938462,32.3501445 9.52615385,32.3390586 9.52523077,32.3227376 L9.52092308,32.2432881 Z" id="Shape" fill="#004987"></path>
                        <path d="M20.2015385,16.3047386 L20.0815385,15.5635181 C19.9603077,14.8232215 19.3529231,15.5635181 19.3529231,15.5635181 L16.9156923,18.5188537 C16.7350769,18.7381096 16.5261538,18.8683698 16.3384615,18.9530543 C16.3193846,18.9610608 16.2981538,18.9721468 16.2787692,18.9804613 C16.0304615,19.0823906 15.8378462,19.0956322 15.8378462,19.0956322 L12.7375385,19.3653909 C12.7375385,19.3653909 12.0735385,19.4765586 12.3923077,20.0582642 L13.0403077,21.8572712 C13.1027692,22.0087795 13.2723077,22.2914718 13.4883077,22.4642283 L15.5984615,24.1419055 C15.5993846,24.1428293 16.0990769,24.5680995 15.98,25.2073906 L15.3138462,28.8029412 L15.2806154,28.9797009 L20.6636923,25.8032617 L20.6556923,25.6286576 L20.2015385,16.3047386 Z" id="Shape" fill="#004987"></path>
                        <path d="M30.3710769,1.40888638 C29.384,4.45414153 27.4929231,7.50740322 24.8698462,10.35773 L25.6418462,10.2952174 C25.6449231,10.2942936 26.0667692,10.253953 26.4683077,10.0821204 L29.5535385,8.76720085 C29.6615385,8.72378079 29.7695385,8.75211161 29.8301538,8.85003771 C29.9150769,8.99046003 29.8169231,9.11764077 29.7212308,9.21063977 L27.5695385,11.2347536 L27.5673846,11.2338298 C27.5673846,11.2338298 27.2716923,11.5045123 26.8578462,11.6883547 L24.9766154,12.5225742 C24.9766154,12.5225742 24.4055385,12.7458333 24.58,13.52955 L24.6738462,13.9495852 C24.6747692,13.9526647 24.7716923,14.4413713 25.1987692,14.781957 L27.6076923,16.6970588 C27.6098462,16.6992144 28.1787692,17.1839178 28.0436923,17.9140523 L27.3504615,21.6512569 L27.3070769,21.8834465 L34.6298462,17.5626885 L34.6298462,17.3264957 L34.6298462,10.7826923 C34.6298462,5.93288713 33.3178462,2.93105204 30.3710769,1.40888638" id="Shape" fill="#004987"></path>
                        <path d="M25.9064615,18.8314165 C25.7772308,18.2444759 25.3433846,18.0840372 25.2283077,18.0517031 L24.0283077,17.7366767 C24.0261538,17.7357529 23.4178462,17.5771619 23.22,18.3245412 L21.4095385,25.1805995 L21.352,25.396776 L26.6624615,22.263449 L26.6221538,22.0836099 L25.9064615,18.8314165 Z" id="Shape" fill="#004987"></path>
                        <path d="M24.9769231,12.5225742 L26.8581538,11.6883547 C27.272,11.5045123 27.5676923,11.2338298 27.5676923,11.2338298 L27.5686154,11.2347536 L29.7212308,9.21063977 C29.8172308,9.11764077 29.9150769,8.99046003 29.8292308,8.85003771 C29.7695385,8.75211161 29.6618462,8.72378079 29.5538462,8.76720085 L26.4686154,10.0821204 C26.0658462,10.253953 25.6452308,10.2942936 25.6421538,10.2942936 L24.8701538,10.3568062 C20.6486154,14.9454751 14.5267692,19.0066365 7.19507692,21.6611111 C6.69661538,21.8418741 6.19907692,22.0106272 5.70030769,22.1741453 L6.29169231,24.702363 C6.31784615,24.8055241 6.40461538,24.8812783 6.50953846,24.8932881 L8.83569231,25.0568062 C8.83784615,25.0568062 9.14246154,25.1205505 9.188,25.3952363 L9.52092308,32.2432881 L9.524,32.3221217 C9.52615385,32.3381347 9.53907692,32.3504525 9.54307692,32.3646179 L10.0356923,32.0736111 L10.0781538,31.9128645 L11.7544615,25.5667609 C11.9270769,24.9133044 12.4609231,25.0515711 12.4618462,25.0515711 L13.5135385,25.3271807 C13.6144615,25.3564354 13.9950769,25.4968577 14.108,26.0108157 L14.7910769,29.1115008 L14.8092308,29.1992647 C14.8132308,29.2152778 14.8212308,29.2294432 14.8295385,29.2457642 L15.2806154,28.9781611 L15.3138462,28.8014015 L15.98,25.2067748 C16.0990769,24.5674837 15.5993846,24.1422134 15.5984615,24.1412896 L13.4883077,22.4626885 C13.2723077,22.290856 13.1027692,22.0072398 13.0403077,21.8566554 L12.3923077,20.0576483 C12.0735385,19.4747109 12.7375385,19.3638512 12.7375385,19.3638512 L15.8378462,19.0940925 C15.8378462,19.0940925 16.0304615,19.0820827 16.2787692,18.9798454 C16.2978462,18.9706071 16.3190769,18.9607529 16.3384615,18.9515146 C16.5261538,18.8677539 16.7350769,18.7362619 16.9156923,18.5182378 L19.3529231,15.5619784 C19.3529231,15.5619784 19.9606154,14.8216817 20.0815385,15.5619784 L20.2015385,16.3044306 L20.6556923,25.6280417 L20.6636923,25.801722 L21.352,25.3955442 L21.4095385,25.1793678 L23.22,18.3233095 C23.4178462,17.5768539 24.0264615,17.7345211 24.0283077,17.7354449 L25.2283077,18.0504713 C25.3433846,18.0828054 25.7772308,18.2432441 25.9064615,18.8301848 L26.6218462,22.0823781 L26.6621538,22.2622172 L27.3070769,21.8812908 L27.3504615,21.6500251 L28.0436923,17.9128205 C28.1790769,17.182686 27.6098462,16.6976747 27.6076923,16.695827 L25.1996923,14.7798014 C24.7716923,14.4404475 24.6747692,13.950509 24.6738462,13.9486614 L24.58,13.5286262 C24.4046154,12.7455254 24.9769231,12.5225742 24.9769231,12.5225742" id="Shape" fill="#FFFFFF"></path>
                        <path d="M18.9606154,11.9417924 C18.7769231,12.2146305 18.688,12.4224925 18.688,12.4224925 L15.9630769,17.2393477 C15.9621538,17.2415033 15.96,17.2424271 15.9590769,17.2442748 C15.9267692,17.2997046 15.8913846,17.3462041 15.8532308,17.3877765 C15.8412308,17.4019419 15.828,17.4121041 15.8147692,17.4250377 C15.7895385,17.4481335 15.7643077,17.4715372 15.7381538,17.4897059 C15.7169231,17.505719 15.6956923,17.5189605 15.6744615,17.5300465 C15.6572308,17.5402086 15.6390769,17.549139 15.6218462,17.5583773 C15.5926154,17.5716189 15.5652308,17.5845525 15.536,17.5947147 C15.3150769,17.6704688 15.0969231,17.6430618 15.0193846,17.6270488 L14.992,17.6208899 L14.9889231,17.6208899 L11.0409231,16.7614191 C10.4061538,16.6240762 9.86030769,16.7614191 9.86030769,16.7614191 L8.33753846,17.1897687 C8.156,17.2411953 8.03261538,17.1685206 8.03076923,17.1675968 L6.25046154,16.2736362 C6.13230769,16.2138952 5.98923077,16.2563914 5.92153846,16.3697147 L5.47138462,17.1180178 C5.40061538,17.2362682 5.43815385,17.3887004 5.55507692,17.4613751 L6.80338462,18.2321581 C6.80338462,18.2321581 6.94861538,18.342402 6.85476923,18.4665033 L5.35815385,20.4361111 C5.32892308,20.4906171 5.31969231,20.5543615 5.33507692,20.6150264 L5.69938462,22.1744532 C6.19784615,22.0109351 6.69661538,21.842182 7.19507692,21.6623429 C14.5258462,19.0069444 20.6486154,14.9445513 24.8701538,10.358038 L20.8384615,10.6863059 C19.88,10.8196456 19.2766154,11.4740259 18.9606154,11.9417924" id="Shape" fill="#FFFFFF"></path>
                    </g>
                </g>
            </g>
        </g>
    </g>
</svg>